<?xml version="1.0" standalone="no"?>
<!DOCTYPE svg PUBLIC "-//W3C//DTD SVG 20010904//EN"
 "http://www.w3.org/TR/2001/REC-SVG-20010904/DTD/svg10.dtd">
<svg version="1.0" xmlns="http://www.w3.org/2000/svg"
 width="640.000000pt" height="640.000000pt" viewBox="0 0 640.000000 640.000000"
 preserveAspectRatio="xMidYMid meet">
<metadata>
Created by potrace 1.14, written by Peter Selinger 2001-2017
</metadata>
<g transform="translate(0.000000,640.000000) scale(0.100000,-0.100000)"
fill="#000000" stroke="none">
<path d="M3029 5346 c-2 -2 -31 -6 -64 -10 -33 -3 -69 -8 -80 -10 -11 -3 -36
-8 -55 -10 -81 -12 -288 -67 -355 -95 -11 -5 -56 -24 -100 -42 -93 -39 -212
-100 -273 -141 -24 -15 -46 -28 -49 -28 -18 0 -250 -188 -336 -273 -236 -234
-392 -474 -508 -782 -40 -109 -95 -312 -104 -386 -2 -24 -7 -55 -9 -69 -30
-157 -20 -508 19 -685 1 -5 5 -28 9 -50 4 -22 14 -57 22 -77 7 -21 12 -38 9
-38 -2 0 0 -11 5 -25 5 -14 12 -36 14 -48 9 -42 87 -231 137 -329 55 -109 54
-93 9 -248 -12 -41 -23 -82 -25 -90 -4 -21 -52 -196 -70 -255 -8 -27 -17 -59
-19 -70 -8 -41 -19 -80 -25 -90 -3 -5 -6 -16 -8 -24 -1 -12 -24 -95 -89 -331
-8 -30 -20 -64 -26 -74 -9 -17 -7 -18 24 -12 40 9 42 10 97 25 25 7 54 14 65
15 12 1 44 10 71 18 28 9 64 20 80 24 17 4 35 8 40 10 6 1 21 5 35 8 14 3 84
21 155 40 304 81 444 117 501 132 l61 16 84 -40 c134 -65 328 -136 431 -158
57 -12 215 -41 228 -42 8 -1 49 -4 90 -8 131 -13 414 -7 500 11 14 3 52 10 85
16 33 5 87 17 120 26 33 8 65 16 70 17 6 1 16 5 23 9 6 5 12 6 12 2 0 -3 9 -1
21 5 11 6 28 13 37 15 9 2 31 9 47 16 17 7 32 13 35 14 3 1 18 7 33 13 15 7
39 15 52 18 14 3 25 11 25 17 0 6 3 8 6 4 7 -7 106 42 116 57 4 6 8 8 8 3 0
-4 18 4 40 18 22 14 44 25 50 25 5 0 10 4 10 9 0 5 8 11 18 13 15 5 199 132
212 147 3 4 28 25 57 49 57 47 162 150 208 204 82 96 101 120 166 212 38 55
72 110 75 123 4 13 9 23 13 23 9 0 109 200 126 250 1 3 7 19 14 35 6 17 16 44
22 60 6 17 15 39 19 50 10 24 49 176 56 213 2 15 11 61 18 102 22 116 28 203
27 355 -1 121 -6 240 -11 240 -1 0 -3 16 -5 35 -2 19 -6 46 -8 60 -26 138 -37
189 -45 210 -5 14 -10 28 -11 32 -1 4 -3 13 -6 20 -2 7 -8 29 -14 48 -35 123
-181 440 -221 480 -14 14 -70 102 -70 109 0 5 -3 11 -7 13 -5 2 -35 37 -67 78
-75 94 -239 259 -331 332 -72 57 -230 168 -239 168 -3 0 -32 16 -66 36 -103
60 -354 164 -433 180 -11 2 -34 8 -52 14 -18 6 -43 13 -56 15 -82 16 -137 27
-159 31 -14 3 -41 8 -60 10 -43 7 -445 15 -451 10z"/>
</g>
</svg>
